<?xml version="1.0" encoding="UTF-8"?>
<svg id="Capa_1" xmlns="http://www.w3.org/2000/svg" xmlns:xlink="http://www.w3.org/1999/xlink" version="1.1" viewBox="0 0 520.1 134">
  <!-- Generator: Adobe Illustrator 29.0.1, SVG Export Plug-In . SVG Version: 2.1.0 Build 192)  -->
  <defs>
    <style>
      .st0 {
        fill: none;
      }

      .st1 {
        fill: #fff;
      }

      .st2 {
        fill: url(#Degradado_sin_nombre);
      }

      .st3 {
        fill: url(#Degradado_sin_nombre_7);
      }

      .st4 {
        fill: url(#Degradado_sin_nombre_6);
      }

      .st5 {
        fill: url(#Degradado_sin_nombre_5);
      }

      .st6 {
        fill: url(#Degradado_sin_nombre_8);
      }

      .st7 {
        fill: url(#Degradado_sin_nombre_4);
      }

      .st8 {
        fill: url(#Degradado_sin_nombre_9);
      }

      .st9 {
        fill: url(#Degradado_sin_nombre_3);
      }

      .st10 {
        fill: url(#Degradado_sin_nombre_2);
      }
    </style>
    <linearGradient id="Degradado_sin_nombre" data-name="Degradado sin nombre" x1="173" y1="128.2" x2="173" y2="34.5" gradientTransform="translate(0 134.1) scale(1 -1)" gradientUnits="userSpaceOnUse">
      <stop offset=".4" stop-color="#fcdb1c"/>
      <stop offset="1" stop-color="#f2821d"/>
    </linearGradient>
    <linearGradient id="Degradado_sin_nombre_2" data-name="Degradado sin nombre 2" x1="142.2" y1="156.7" x2="218.2" y2="59.7" gradientTransform="translate(0 134.1) scale(1 -1)" gradientUnits="userSpaceOnUse">
      <stop offset=".1" stop-color="#fcdb1c"/>
      <stop offset="1" stop-color="#f2821d"/>
    </linearGradient>
    <linearGradient id="Degradado_sin_nombre_3" data-name="Degradado sin nombre 3" x1="224.1" y1="105.9" x2="224.1" y2="11.3" gradientTransform="translate(0 134.1) scale(1 -1)" gradientUnits="userSpaceOnUse">
      <stop offset="0" stop-color="#fcdb1c"/>
      <stop offset=".7" stop-color="#f2821d"/>
    </linearGradient>
    <linearGradient id="Degradado_sin_nombre_4" data-name="Degradado sin nombre 4" x1="248.5" y1="127.3" x2="301.2" y2="74.6" gradientTransform="translate(0 134.1) scale(1 -1)" gradientUnits="userSpaceOnUse">
      <stop offset="0" stop-color="#db375e"/>
      <stop offset=".2" stop-color="#dc3961"/>
      <stop offset=".4" stop-color="#df426d"/>
      <stop offset=".6" stop-color="#e55180"/>
      <stop offset=".8" stop-color="#ed669a"/>
      <stop offset=".9" stop-color="#f781bc"/>
      <stop offset="1" stop-color="#fc8cca"/>
    </linearGradient>
    <linearGradient id="Degradado_sin_nombre_5" data-name="Degradado sin nombre 5" x1="247.8" y1="85.3" x2="324.7" y2="85.3" gradientTransform="translate(0 134.1) scale(1 -1)" gradientUnits="userSpaceOnUse">
      <stop offset="0" stop-color="#fcdb1c"/>
      <stop offset=".2" stop-color="#f9c71c"/>
      <stop offset=".5" stop-color="#f5a11c"/>
      <stop offset=".8" stop-color="#f28a1c"/>
      <stop offset="1" stop-color="#f2821d"/>
    </linearGradient>
    <linearGradient id="Degradado_sin_nombre_6" data-name="Degradado sin nombre 6" x1="264.3" y1="22.5" x2="264.3" y2="79.9" gradientTransform="translate(0 134.1) scale(1 -1)" gradientUnits="userSpaceOnUse">
      <stop offset="0" stop-color="#fcdb1c"/>
      <stop offset="1" stop-color="#f2821d"/>
    </linearGradient>
    <linearGradient id="Degradado_sin_nombre_7" data-name="Degradado sin nombre 7" x1="304.8" y1="30.5" x2="377.6" y2="141" gradientTransform="translate(0 134.1) scale(1 -1)" gradientUnits="userSpaceOnUse">
      <stop offset="0" stop-color="#238ec2"/>
      <stop offset="1" stop-color="#fc8cc7"/>
    </linearGradient>
    <linearGradient id="Degradado_sin_nombre_8" data-name="Degradado sin nombre 8" x1="316.6" y1="103.7" x2="373.2" y2="103.7" gradientTransform="translate(0 134.1) scale(1 -1)" gradientUnits="userSpaceOnUse">
      <stop offset="0" stop-color="#fcdb1c"/>
      <stop offset="1" stop-color="#f2821d"/>
    </linearGradient>
    <linearGradient id="Degradado_sin_nombre_9" data-name="Degradado sin nombre 9" x1="316.8" y1="84.8" x2="297" y2="84.8" gradientTransform="translate(0 134.1) scale(1 -1)" gradientUnits="userSpaceOnUse">
      <stop offset="0" stop-color="#fcdb1c"/>
      <stop offset="1" stop-color="#f2821d"/>
    </linearGradient>
  </defs>
  <g id="Tipografia">
    <rect x="-39.3" y="-148" width="715.3" height="512.6"/>
  </g>
  <g id="Logo">
    <g>
      <g>
        <g>
          <polygon class="st2" points="163.9 14.7 163.9 84 182 84 182 41.5 164.1 14.7 163.9 14.7"/>
          <polygon class="st10" points="215.1 57 215 57 182 14.7 164.1 14.7 182 41.5 182.1 41.5 215.1 84 232.4 84 215.1 57"/>
          <polygon class="st9" points="233.2 84 233.2 14.7 215.1 14.7 215.1 57 215.1 57 232.4 84 233.2 84"/>
        </g>
        <g>
          <path class="st0" d="M257.7,55.3h-1.8v14.9h2.3c5.3,0,14.3.3,14.3-7.4s-8.9-7.5-14.8-7.5Z"/>
          <path class="st7" d="M255.9,28.4h1.3c4.9,0,10.5.4,10.5,6.7s-.3,2.7-.9,3.6l9.8,8.2h0c5.6-2.9,7.6-8,7.6-14.2,0-13.2-8.3-18-20.6-18h-25.6l17.9,15v-1.2h0Z"/>
          <path class="st5" d="M255.9,55.3h1.8c2.8,0,6.3-.2,9.2.5l9.6-8.9-9.7-8.1c-1.6,2.7-5.3,3.1-8.9,3.1h-2v-12.2l-17.9-15h-.1v68.3l18-16.8v-10.9h0Z"/>
          <path class="st4" d="M276.6,47h0c0-.1,0-.1,0-.1l-9.6,8.9c3.1.8,5.6,2.6,5.6,7,0,7.6-9,7.4-14.3,7.4h-2.3v-4l-18,16.8v1h27.8c12.7,0,25.1-4.8,25.1-19.3s-4.2-16.4-14.2-17.6h0Z"/>
        </g>
        <g>
          <path class="st3" d="M337.2,46.1c.1,1,.2,2.1.2,3.2,0,13.5-9.2,19.4-20,19.4h-4v-1.1l-18,16.3h25.5c19.2,0,35.2-15.2,35.2-34.6s-1.5-11.6-4.2-16.5l-14.7,13.3h0Z"/>
          <path class="st6" d="M321,14.7h-25.5l18.4,15.3h3.9c10.5,0,18.3,5.8,19.6,16.2l14.7-13.3c-6-10.9-17.7-18.1-31-18.1h0Z"/>
          <polygon class="st8" points="295.4 84 313.4 67.7 313.4 29.9 313.8 29.9 295.4 14.7 295.4 84"/>
        </g>
      </g>
      <g>
        <path class="st1" d="M175.6,93.9h-.4l-11.3,24.7h4.1l2.8-6.7h9.4l2.7,6.7h4.1l-11.3-24.7h0ZM172.2,108.6l2.4-5.4c.1-.4.3-.8.4-1.2.1-.4.3-.9.4-1.4.1.6.3,1,.4,1.5.1.4.3.8.4,1.2l2.4,5.4h-6.6,0Z"/>
        <path class="st1" d="M208.3,100.3c-.7-1.7-1.8-3.1-3.1-4.2-1-.8-2.2-1.4-3.6-1.8-1.4-.4-3.8-.5-7.1-.5h-5.2v24.7h6.2c2.8,0,4.9-.2,6.2-.5,1.3-.4,2.5-.9,3.6-1.8,1.4-1.1,2.4-2.5,3.1-4.2.7-1.7,1.1-3.6,1.1-5.8s-.4-4.1-1.1-5.9h0ZM204.7,110.3c-.4,1.2-1.1,2.2-2,3-.7.6-1.4,1-2.3,1.2s-2.2.4-4,.4h-3.2v-17.5h2.8c2,0,3.4.1,4.4.4s1.7.7,2.4,1.2c.9.8,1.6,1.8,2,3s.7,2.6.7,4.1-.2,2.9-.7,4.1h0Z"/>
        <path class="st1" d="M232.2,93.8h-.2l-11.4,24.7h4.1l2.8-6.7h9.4l2.7,6.7h4.1l-11.4-24.7h0ZM228.9,108.6l2.4-5.4c.1-.4.3-.8.4-1.2.1-.4.3-.9.4-1.4.1.6.3,1,.4,1.5.1.4.3.8.4,1.2l2.4,5.4h-6.6,0Z"/>
        <path class="st1" d="M257.6,105.8h9.4c0,.2,0,.4,0,.7,0,.8,0,1.3,0,1.5,0,3.3-1,5.9-2.9,7.7s-4.6,2.8-8.1,2.8-3.7-.3-5.2-.9c-1.5-.6-2.9-1.4-4-2.6-1.1-1.1-2-2.5-2.6-4s-.9-3.2-.9-4.9.3-3.4.9-4.9,1.5-2.8,2.7-4c1.2-1.1,2.5-2,4.1-2.6,1.6-.6,3.2-.9,5-.9s3.5.3,5,1,2.8,1.7,4,3.1l-2.8,2.1c-.8-.9-1.7-1.6-2.7-2.1-1-.4-2.1-.7-3.4-.7-2.6,0-4.7.8-6.3,2.4-1.6,1.6-2.4,3.8-2.4,6.4s.8,4.8,2.4,6.5c1.6,1.6,3.7,2.5,6.3,2.5s3.9-.5,5.2-1.5,1.9-2.4,1.9-4.2v-.3h-5.7v-3.2h0Z"/>
        <polygon class="st1" points="271 118.5 271 93.8 284.2 93.8 284.2 97.3 274.9 97.3 274.9 103.4 284.2 103.4 284.2 107 274.9 107 274.9 114.9 284.2 114.9 284.2 118.5 271 118.5"/>
        <path class="st1" d="M288.8,118.5v-24.7h3.5l11.5,14c.4.4.8.8,1.2,1.3s.9,1,1.3,1.6v-16.8h3.6v24.7h-3.6l-11.8-14.4c-.4-.4-.8-.8-1.2-1.2s-.8-.9-1.1-1.4v17h-3.5Z"/>
        <path class="st1" d="M334.3,100.1c-1.1-.9-2.2-1.6-3.5-2.1-1.2-.5-2.5-.7-3.8-.7-2.6,0-4.7.8-6.3,2.5s-2.4,3.8-2.4,6.4.8,4.6,2.4,6.3,3.6,2.5,6,2.5,2.8-.2,4-.7,2.5-1.2,3.7-2.2v4.3c-1,.7-2.2,1.3-3.4,1.6s-2.5.6-4,.6-3.5-.3-5-.9c-1.5-.6-2.9-1.5-4.1-2.6-1.2-1.1-2-2.4-2.7-4-.6-1.5-.9-3.1-.9-4.9s.3-3.3.9-4.9,1.5-2.9,2.7-4c1.2-1.2,2.5-2,4.1-2.6,1.5-.6,3.2-.9,5-.9s2.7.2,4,.6c1.3.4,2.5,1,3.7,1.8l-.2,3.9h0Z"/>
        <path class="st1" d="M344.1,118.5v-11.3l-8-13.4h4.1l5,8.4c.1.2.3.5.5.8.2.4.4.7.5,1.1.1-.4.3-.8.5-1.1s.3-.7.5-1l5.1-8.3h3.9l-8.2,13.4v11.3h-3.8Z"/>
      </g>
    </g>
  </g>
</svg>