<?xml version="1.0" encoding="UTF-8"?>
<svg xmlns="http://www.w3.org/2000/svg" xmlns:xlink="http://www.w3.org/1999/xlink" version="1.1" viewBox="0 0 255.12 191.15">
  <!-- Generator: Adobe Illustrator 29.0.1, SVG Export Plug-In . SVG Version: 2.1.0 Build 192)  -->
  <defs>
    <style>
      .st0, .st1 {
        fill: none;
      }

      .st2 {
        fill: url(#Degradado_sin_nombre_610);
        filter: url(#drop-shadow-6);
      }

      .st3 {
        fill: url(#Degradado_sin_nombre_69);
        filter: url(#drop-shadow-2);
      }

      .st4 {
        fill: #fff;
      }

      .st5 {
        fill: url(#Degradado_sin_nombre_132);
      }

      .st6 {
        fill: url(#Degradado_sin_nombre_133);
      }

      .st7 {
        fill: url(#Degradado_sin_nombre_131);
      }

      .st8 {
        fill: url(#Degradado_sin_nombre_101);
      }

      .st9 {
        fill: url(#Degradado_sin_nombre_102);
      }

      .st10 {
        fill: url(#Degradado_sin_nombre_103);
      }

      .st11 {
        fill: url(#Degradado_sin_nombre_111);
      }

      .st12 {
        fill: url(#Degradado_sin_nombre_113);
      }

      .st13 {
        fill: url(#Degradado_sin_nombre_112);
      }

      .st14 {
        fill: url(#Degradado_sin_nombre_121);
      }

      .st15 {
        fill: url(#Degradado_sin_nombre_122);
      }

      .st16 {
        fill: url(#Degradado_sin_nombre_123);
      }

      .st17 {
        fill: url(#Degradado_sin_nombre_7);
      }

      .st18 {
        fill: url(#Degradado_sin_nombre_6);
      }

      .st19 {
        fill: url(#Degradado_sin_nombre_8);
      }

      .st20 {
        fill: url(#Degradado_sin_nombre_9);
      }

      .st21 {
        fill: url(#Degradado_sin_nombre_2);
      }

      .st22 {
        fill: #030402;
      }

      .st23 {
        fill: url(#Degradado_sin_nombre_93);
      }

      .st24 {
        fill: url(#Degradado_sin_nombre_81);
      }

      .st25 {
        fill: url(#Degradado_sin_nombre_82);
      }

      .st26 {
        fill: url(#Degradado_sin_nombre_91);
      }

      .st27 {
        fill: url(#Degradado_sin_nombre_92);
      }

      .st28 {
        fill: url(#Degradado_sin_nombre_83);
      }

      .st29 {
        fill: url(#Degradado_sin_nombre_73);
      }

      .st30 {
        fill: url(#Degradado_sin_nombre_72);
      }

      .st31 {
        fill: url(#Degradado_sin_nombre_71);
      }

      .st32 {
        fill: url(#Degradado_sin_nombre_67);
      }

      .st33 {
        fill: url(#Degradado_sin_nombre_64);
      }

      .st34 {
        fill: url(#Degradado_sin_nombre_66);
      }

      .st35 {
        fill: url(#Degradado_sin_nombre_65);
      }

      .st36 {
        fill: url(#Degradado_sin_nombre_62);
      }

      .st37 {
        fill: url(#Degradado_sin_nombre_68);
      }

      .st38 {
        fill: url(#Degradado_sin_nombre_63);
      }

      .st39 {
        fill: url(#Degradado_sin_nombre_61);
      }

      .st40 {
        fill: url(#Degradado_sin_nombre_10);
      }

      .st41 {
        fill: url(#Degradado_sin_nombre_11);
      }

      .st42 {
        fill: url(#Degradado_sin_nombre_12);
      }

      .st43 {
        fill: url(#Degradado_sin_nombre_13);
      }

      .st44 {
        clip-path: url(#clippath);
      }

      .st1 {
        stroke: #db375e;
        stroke-miterlimit: 10;
        stroke-width: 11.26px;
      }
    </style>
    <linearGradient id="Degradado_sin_nombre_13" data-name="Degradado sin nombre 13" x1="59.2" y1="118.48" x2="59.2" y2="160.23" gradientUnits="userSpaceOnUse">
      <stop offset=".36" stop-color="#fcdb1c"/>
      <stop offset="1" stop-color="#f2821d"/>
    </linearGradient>
    <linearGradient id="Degradado_sin_nombre_12" data-name="Degradado sin nombre 12" x1="45.5" y1="105.76" x2="79.36" y2="149" gradientUnits="userSpaceOnUse">
      <stop offset=".12" stop-color="#fcdb1c"/>
      <stop offset="1" stop-color="#f2821d"/>
    </linearGradient>
    <linearGradient id="Degradado_sin_nombre_11" data-name="Degradado sin nombre 11" x1="82.02" y1="128.4" x2="82.02" y2="170.58" gradientUnits="userSpaceOnUse">
      <stop offset="0" stop-color="#fcdb1c"/>
      <stop offset=".72" stop-color="#f2821d"/>
    </linearGradient>
    <linearGradient id="Degradado_sin_nombre_10" data-name="Degradado sin nombre 10" x1="92.87" y1="118.89" x2="116.35" y2="142.39" gradientUnits="userSpaceOnUse">
      <stop offset="0" stop-color="#db375e"/>
      <stop offset=".2" stop-color="#dc3961"/>
      <stop offset=".39" stop-color="#df426d"/>
      <stop offset=".58" stop-color="#e55180"/>
      <stop offset=".76" stop-color="#ed669a"/>
      <stop offset=".94" stop-color="#f781bc"/>
      <stop offset="1" stop-color="#fc8cca"/>
    </linearGradient>
    <linearGradient id="Degradado_sin_nombre_9" data-name="Degradado sin nombre 9" x1="92.58" y1="137.6" x2="126.85" y2="137.6" gradientUnits="userSpaceOnUse">
      <stop offset="0" stop-color="#fcdb1c"/>
      <stop offset=".16" stop-color="#f9c71c"/>
      <stop offset=".53" stop-color="#f5a11c"/>
      <stop offset=".82" stop-color="#f28a1c"/>
      <stop offset="1" stop-color="#f2821d"/>
    </linearGradient>
    <linearGradient id="Degradado_sin_nombre_8" data-name="Degradado sin nombre 8" x1="99.91" y1="165.6" x2="99.91" y2="139.99" gradientUnits="userSpaceOnUse">
      <stop offset="0" stop-color="#fcdb1c"/>
      <stop offset="1" stop-color="#f2821d"/>
    </linearGradient>
    <linearGradient id="Degradado_sin_nombre_7" data-name="Degradado sin nombre 7" x1="117.99" y1="162.03" x2="150.43" y2="112.78" gradientUnits="userSpaceOnUse">
      <stop offset="0" stop-color="#238ec2"/>
      <stop offset="1" stop-color="#fc8cc7"/>
    </linearGradient>
    <linearGradient id="Degradado_sin_nombre_6" data-name="Degradado sin nombre 6" x1="123.25" y1="129.39" x2="148.47" y2="129.39" gradientUnits="userSpaceOnUse">
      <stop offset="0" stop-color="#fcdb1c"/>
      <stop offset="1" stop-color="#f2821d"/>
    </linearGradient>
    <linearGradient id="Degradado_sin_nombre_61" data-name="Degradado sin nombre 6" x1="123.31" y1="137.82" x2="114.49" y2="137.82" xlink:href="#Degradado_sin_nombre_6"/>
    <linearGradient id="Degradado_sin_nombre_131" data-name="Degradado sin nombre 13" x1="117.8" y1="84.81" x2="117.8" y2="126.57" xlink:href="#Degradado_sin_nombre_13"/>
    <linearGradient id="Degradado_sin_nombre_121" data-name="Degradado sin nombre 12" x1="104.1" y1="72.1" x2="137.97" y2="115.33" xlink:href="#Degradado_sin_nombre_12"/>
    <linearGradient id="Degradado_sin_nombre_111" data-name="Degradado sin nombre 11" x1="140.62" y1="94.74" x2="140.62" y2="136.91" xlink:href="#Degradado_sin_nombre_11"/>
    <linearGradient id="Degradado_sin_nombre_101" data-name="Degradado sin nombre 10" x1="151.47" y1="85.22" x2="174.96" y2="108.72" xlink:href="#Degradado_sin_nombre_10"/>
    <linearGradient id="Degradado_sin_nombre_91" data-name="Degradado sin nombre 9" x1="151.18" y1="103.94" x2="185.45" y2="103.94" xlink:href="#Degradado_sin_nombre_9"/>
    <linearGradient id="Degradado_sin_nombre_81" data-name="Degradado sin nombre 8" x1="158.52" y1="131.94" x2="158.52" y2="106.33" xlink:href="#Degradado_sin_nombre_8"/>
    <linearGradient id="Degradado_sin_nombre_71" data-name="Degradado sin nombre 7" x1="176.59" y1="128.37" x2="209.03" y2="79.12" xlink:href="#Degradado_sin_nombre_7"/>
    <linearGradient id="Degradado_sin_nombre_62" data-name="Degradado sin nombre 6" x1="181.86" y1="95.72" x2="207.07" y2="95.72" xlink:href="#Degradado_sin_nombre_6"/>
    <linearGradient id="Degradado_sin_nombre_63" data-name="Degradado sin nombre 6" x1="181.92" y1="104.16" x2="173.09" y2="104.16" xlink:href="#Degradado_sin_nombre_6"/>
    <linearGradient id="Degradado_sin_nombre_132" data-name="Degradado sin nombre 13" x1="59.23" y1="51.7" x2="59.23" y2="93.45" xlink:href="#Degradado_sin_nombre_13"/>
    <linearGradient id="Degradado_sin_nombre_122" data-name="Degradado sin nombre 12" x1="45.53" y1="38.98" x2="79.4" y2="82.22" xlink:href="#Degradado_sin_nombre_12"/>
    <linearGradient id="Degradado_sin_nombre_112" data-name="Degradado sin nombre 11" x1="82.05" y1="61.62" x2="82.05" y2="103.8" xlink:href="#Degradado_sin_nombre_11"/>
    <linearGradient id="Degradado_sin_nombre_102" data-name="Degradado sin nombre 10" x1="92.9" y1="52.11" x2="116.39" y2="75.61" xlink:href="#Degradado_sin_nombre_10"/>
    <linearGradient id="Degradado_sin_nombre_92" data-name="Degradado sin nombre 9" x1="92.61" y1="70.82" x2="126.89" y2="70.82" xlink:href="#Degradado_sin_nombre_9"/>
    <linearGradient id="Degradado_sin_nombre_82" data-name="Degradado sin nombre 8" x1="99.95" y1="98.82" x2="99.95" y2="73.21" xlink:href="#Degradado_sin_nombre_8"/>
    <linearGradient id="Degradado_sin_nombre_72" data-name="Degradado sin nombre 7" x1="118.02" y1="95.25" x2="150.47" y2="46" xlink:href="#Degradado_sin_nombre_7"/>
    <linearGradient id="Degradado_sin_nombre_64" data-name="Degradado sin nombre 6" x1="123.29" y1="62.61" x2="148.5" y2="62.61" xlink:href="#Degradado_sin_nombre_6"/>
    <linearGradient id="Degradado_sin_nombre_65" data-name="Degradado sin nombre 6" x1="123.35" y1="71.04" x2="114.52" y2="71.04" xlink:href="#Degradado_sin_nombre_6"/>
    <linearGradient id="Degradado_sin_nombre_133" data-name="Degradado sin nombre 13" x1="118.26" y1="18.58" x2="118.26" y2="60.33" xlink:href="#Degradado_sin_nombre_13"/>
    <linearGradient id="Degradado_sin_nombre_123" data-name="Degradado sin nombre 12" x1="104.56" y1="5.86" x2="138.43" y2="49.1" xlink:href="#Degradado_sin_nombre_12"/>
    <linearGradient id="Degradado_sin_nombre_113" data-name="Degradado sin nombre 11" x1="141.08" y1="28.5" x2="141.08" y2="70.68" xlink:href="#Degradado_sin_nombre_11"/>
    <linearGradient id="Degradado_sin_nombre_103" data-name="Degradado sin nombre 10" x1="151.93" y1="18.99" x2="175.42" y2="42.49" xlink:href="#Degradado_sin_nombre_10"/>
    <linearGradient id="Degradado_sin_nombre_93" data-name="Degradado sin nombre 9" x1="151.64" y1="37.7" x2="185.91" y2="37.7" xlink:href="#Degradado_sin_nombre_9"/>
    <linearGradient id="Degradado_sin_nombre_83" data-name="Degradado sin nombre 8" x1="158.98" y1="65.7" x2="158.98" y2="40.09" xlink:href="#Degradado_sin_nombre_8"/>
    <linearGradient id="Degradado_sin_nombre_73" data-name="Degradado sin nombre 7" x1="177.05" y1="62.13" x2="209.49" y2="12.89" xlink:href="#Degradado_sin_nombre_7"/>
    <linearGradient id="Degradado_sin_nombre_66" data-name="Degradado sin nombre 6" x1="182.32" y1="29.49" x2="207.53" y2="29.49" xlink:href="#Degradado_sin_nombre_6"/>
    <linearGradient id="Degradado_sin_nombre_67" data-name="Degradado sin nombre 6" x1="182.38" y1="37.92" x2="173.55" y2="37.92" xlink:href="#Degradado_sin_nombre_6"/>
    <clipPath id="clippath">
      <rect class="st0" x="169.5" y="244.46" width="89.03" height="147.47"/>
    </clipPath>
    <linearGradient id="Degradado_sin_nombre_68" data-name="Degradado sin nombre 6" x1="174.26" y1="269.72" x2="174.26" y2="408.28" xlink:href="#Degradado_sin_nombre_6"/>
    <linearGradient id="Degradado_sin_nombre_2" data-name="Degradado sin nombre 2" x1="195.86" y1="397.88" x2="195.86" y2="265.99" gradientUnits="userSpaceOnUse">
      <stop offset="0" stop-color="#238ec2"/>
      <stop offset="1" stop-color="#fc8cca"/>
    </linearGradient>
    <linearGradient id="Degradado_sin_nombre_69" data-name="Degradado sin nombre 6" x1="-6701.52" y1="-868.62" x2="-6701.52" y2="-556.03" gradientTransform="translate(6951.63 1045.28)" xlink:href="#Degradado_sin_nombre_6"/>
    <filter id="drop-shadow-2" x="226.86" y="162.3" width="52" height="348" filterUnits="userSpaceOnUse">
      <feOffset dx="3.18" dy="3.18"/>
      <feGaussianBlur result="blur" stdDeviation="5.67"/>
      <feFlood flood-color="#212121" flood-opacity=".35"/>
      <feComposite in2="blur" operator="in"/>
      <feComposite in="SourceGraphic"/>
    </filter>
    <linearGradient id="Degradado_sin_nombre_610" data-name="Degradado sin nombre 6" x1="-6729.14" y1="-829.48" x2="-6729.14" y2="-758.25" gradientTransform="translate(6951.63 1045.28)" xlink:href="#Degradado_sin_nombre_6"/>
    <filter id="drop-shadow-6" x="181.85" y="184.3" width="87" height="140" filterUnits="userSpaceOnUse">
      <feOffset dx="3.18" dy="3.18"/>
      <feGaussianBlur result="blur1" stdDeviation="11.34"/>
      <feFlood flood-color="#212121" flood-opacity=".35"/>
      <feComposite in2="blur1" operator="in"/>
      <feComposite in="SourceGraphic"/>
    </filter>
  </defs>
  <g id="Portada">
    <rect id="_x3C_Fondo_x3E_" class="st22" x="-3.8" y="-25.57" width="262.84" height="220.87"/>
    <g>
      <g id="_x3C_Logo_x3E_">
        <g>
          <g>
            <polygon class="st43" points="55.18 122.37 55.18 153.27 63.21 153.27 63.21 134.34 55.27 122.37 55.18 122.37"/>
            <polygon class="st42" points="78 141.26 77.93 141.26 63.21 122.37 55.27 122.37 63.21 134.34 63.3 134.34 78.01 153.27 85.7 153.27 78 141.26"/>
            <polygon class="st41" points="86.04 153.27 86.04 122.37 78.01 122.37 78.01 141.26 78 141.26 85.7 153.27 86.04 153.27"/>
          </g>
          <g>
            <path class="st0" d="M96.98,140.48h-.82v6.64h1.02c2.38,0,6.39.12,6.39-3.28,0-3.73-3.97-3.36-6.6-3.36Z"/>
            <path class="st40" d="M96.16,128.52h.57c2.17,0,4.67.16,4.67,2.99,0,.67-.14,1.18-.39,1.59l4.36,3.65v-.04c2.5-1.27,3.4-3.52,3.4-6.31,0-5.9-3.69-8.03-9.18-8.03h-11.41l7.97,6.67v-.52Z"/>
            <path class="st20" d="M96.16,140.48h.82c1.26,0,2.82-.08,4.11.24l4.27-3.99-4.34-3.63c-.73,1.19-2.36,1.4-3.95,1.4h-.9v-5.46l-7.97-6.67h-.06v30.45l8.03-7.5v-4.84Z"/>
            <path class="st19" d="M105.38,136.8v-.04l-.02-.02-4.27,3.99c1.41.35,2.49,1.18,2.49,3.12,0,3.4-4.02,3.28-6.39,3.28h-1.02v-1.8l-8.03,7.5v.44h12.38c5.65,0,11.19-2.13,11.19-8.61,0-4.3-1.88-7.29-6.31-7.87Z"/>
          </g>
          <g>
            <path class="st17" d="M132.43,136.4c.06.45.09.93.09,1.42,0,6.02-4.1,8.65-8.89,8.65h-1.8v-.47l-8.03,7.27h11.39c8.56,0,15.69-6.76,15.69-15.45,0-2.69-.68-5.19-1.87-7.37l-6.57,5.95Z"/>
            <path class="st18" d="M125.18,122.37h-11.39l8.19,6.8h1.73c4.7,0,8.15,2.58,8.72,7.22l6.57-5.95c-2.66-4.85-7.88-8.08-13.82-8.08Z"/>
            <polygon class="st39" points="113.79 153.27 121.82 146 121.82 129.18 121.97 129.18 113.79 122.37 113.79 153.27"/>
          </g>
        </g>
        <g>
          <path class="st4" d="M60.4,157.68h-.17s-5.04,11-5.04,11h1.81l1.23-2.98h4.2l1.2,2.98h1.82l-5.03-11ZM58.86,164.27l1.09-2.39c.07-.17.13-.35.2-.55.07-.2.13-.41.18-.64.07.24.13.46.2.66.07.2.13.37.2.53l1.09,2.39h-2.95Z"/>
          <path class="st4" d="M74.97,160.57c-.32-.76-.78-1.39-1.39-1.87-.46-.37-1-.64-1.62-.79-.61-.16-1.68-.24-3.19-.24h-2.32v11h2.79c1.25,0,2.17-.08,2.76-.24.59-.16,1.12-.42,1.58-.79.61-.49,1.08-1.11,1.39-1.87.32-.75.47-1.62.47-2.6s-.16-1.85-.47-2.61ZM73.34,165.01c-.2.53-.5.97-.9,1.33-.29.26-.64.45-1.04.56-.4.11-.99.17-1.79.17h-1.45v-7.79h1.24c.89,0,1.54.06,1.96.17.42.11.78.3,1.07.56.4.36.7.8.9,1.33.2.53.3,1.14.3,1.84s-.1,1.32-.3,1.84Z"/>
          <path class="st4" d="M85.62,157.68h-.08l-5.09,11h1.81l1.23-2.98h4.2l1.2,2.98h1.82l-5.08-11ZM84.12,164.27l1.09-2.39c.07-.17.13-.35.2-.55.07-.2.13-.41.18-.64.07.24.13.46.2.66.07.2.13.37.2.53l1.09,2.39h-2.95Z"/>
          <path class="st4" d="M96.92,163.02h4.2c0,.07,0,.17,0,.3.01.34.02.57.02.69,0,1.48-.43,2.62-1.28,3.44s-2.06,1.22-3.61,1.22c-.87,0-1.64-.13-2.32-.38-.68-.25-1.28-.63-1.79-1.15-.5-.51-.89-1.1-1.15-1.78s-.4-1.41-.4-2.19.14-1.52.41-2.19c.27-.67.68-1.26,1.21-1.77.52-.5,1.12-.88,1.82-1.15.69-.26,1.44-.39,2.23-.39.83,0,1.58.15,2.24.45s1.25.76,1.76,1.38l-1.26.94c-.36-.41-.76-.72-1.21-.92-.45-.2-.95-.3-1.5-.3-1.15,0-2.08.36-2.81,1.09-.73.73-1.09,1.67-1.09,2.84s.36,2.14,1.09,2.88c.73.74,1.67,1.11,2.83,1.11.98,0,1.76-.23,2.32-.68s.85-1.07.85-1.85v-.15h-2.55v-1.44Z"/>
          <polygon class="st4" points="102.9 168.67 102.9 157.68 108.81 157.68 108.81 159.19 104.62 159.19 104.62 161.95 108.81 161.95 108.81 163.52 104.62 163.52 104.62 167.07 108.81 167.07 108.81 168.67 102.9 168.67"/>
          <path class="st4" d="M110.83,168.67v-11s1.58,0,1.58,0l5.14,6.22c.18.18.37.37.56.58.19.21.39.44.59.69v-7.5h1.59v11h-1.59l-5.27-6.4c-.18-.18-.36-.36-.53-.56s-.33-.4-.49-.62v7.57h-1.58Z"/>
          <path class="st4" d="M131.13,160.46c-.49-.41-1-.72-1.54-.92-.54-.21-1.11-.31-1.71-.31-1.16,0-2.1.37-2.83,1.1-.73.74-1.09,1.69-1.09,2.86s.35,2.06,1.06,2.8c.71.74,1.6,1.1,2.67,1.1.63,0,1.22-.11,1.79-.33.57-.22,1.11-.55,1.63-1v1.93c-.46.33-.97.58-1.51.74-.55.16-1.14.24-1.77.24-.81,0-1.56-.13-2.25-.39-.69-.26-1.29-.65-1.81-1.16-.52-.5-.91-1.09-1.19-1.77-.28-.68-.42-1.4-.42-2.17s.14-1.49.42-2.17.68-1.27,1.2-1.78c.53-.52,1.13-.91,1.81-1.17.68-.27,1.42-.4,2.21-.4.62,0,1.22.09,1.78.27.56.18,1.11.45,1.64.81l-.09,1.72Z"/>
          <path class="st4" d="M135.5,168.67v-5.03l-3.57-5.96h1.81l2.22,3.73c.05.09.12.22.2.38.08.16.16.32.24.5.07-.18.14-.34.21-.5.07-.16.15-.3.24-.43l2.28-3.69h1.72l-3.65,5.96v5.03h-1.71Z"/>
        </g>
      </g>
      <g id="_x3C_Logo_x3E_1" data-name="_x3C_Logo_x3E_">
        <g>
          <g>
            <polygon class="st7" points="113.79 88.71 113.79 119.61 121.82 119.61 121.82 100.67 113.87 88.71 113.79 88.71"/>
            <polygon class="st14" points="136.6 107.6 136.53 107.6 121.82 88.71 113.87 88.71 121.82 100.67 121.9 100.67 136.61 119.61 144.3 119.61 136.6 107.6"/>
            <polygon class="st11" points="144.64 119.61 144.64 88.71 136.61 88.71 136.61 107.6 136.6 107.6 144.3 119.61 144.64 119.61"/>
          </g>
          <g>
            <path class="st0" d="M155.59,106.82h-.82v6.64h1.02c2.38,0,6.39.12,6.39-3.28,0-3.73-3.97-3.36-6.6-3.36Z"/>
            <path class="st8" d="M154.77,94.86h.57c2.17,0,4.67.16,4.67,2.99,0,.67-.14,1.18-.39,1.59l4.36,3.65v-.04c2.5-1.27,3.4-3.52,3.4-6.31,0-5.9-3.69-8.03-9.18-8.03h-11.41l7.97,6.67v-.52Z"/>
            <path class="st26" d="M154.77,106.82h.82c1.26,0,2.82-.08,4.11.24l4.27-3.99-4.34-3.63c-.73,1.19-2.36,1.4-3.95,1.4h-.9v-5.46l-7.97-6.67h-.06v30.45l8.03-7.5v-4.84Z"/>
            <path class="st24" d="M163.99,103.13v-.04l-.02-.02-4.27,3.99c1.41.35,2.49,1.18,2.49,3.12,0,3.4-4.02,3.28-6.39,3.28h-1.02v-1.8l-8.03,7.5v.44h12.38c5.65,0,11.19-2.13,11.19-8.61,0-4.3-1.88-7.29-6.31-7.87Z"/>
          </g>
          <g>
            <path class="st31" d="M191.03,102.74c.06.45.09.93.09,1.42,0,6.02-4.1,8.65-8.89,8.65h-1.8v-.47l-8.03,7.27h11.39c8.56,0,15.69-6.76,15.69-15.45,0-2.69-.68-5.19-1.87-7.37l-6.57,5.95Z"/>
            <path class="st36" d="M183.78,88.71h-11.39l8.19,6.8h1.73c4.7,0,8.15,2.58,8.72,7.22l6.57-5.95c-2.66-4.85-7.88-8.08-13.82-8.08Z"/>
            <polygon class="st38" points="172.39 119.61 180.42 112.34 180.42 95.51 180.57 95.51 172.39 88.71 172.39 119.61"/>
          </g>
        </g>
      </g>
      <g id="_x3C_Logo_x3E_2" data-name="_x3C_Logo_x3E_">
        <g>
          <g>
            <polygon class="st5" points="55.22 55.59 55.22 86.49 63.25 86.49 63.25 67.56 55.3 55.59 55.22 55.59"/>
            <polygon class="st15" points="78.03 74.48 77.96 74.48 63.25 55.59 55.3 55.59 63.25 67.56 63.33 67.56 78.04 86.49 85.73 86.49 78.03 74.48"/>
            <polygon class="st13" points="86.07 86.49 86.07 55.59 78.04 55.59 78.04 74.48 78.03 74.48 85.73 86.49 86.07 86.49"/>
          </g>
          <g>
            <path class="st0" d="M97.02,73.7h-.82v6.64h1.02c2.38,0,6.39.12,6.39-3.28,0-3.73-3.97-3.36-6.6-3.36Z"/>
            <path class="st9" d="M96.2,61.74h.57c2.17,0,4.67.16,4.67,2.99,0,.67-.14,1.18-.39,1.59l4.36,3.65v-.04c2.5-1.27,3.4-3.52,3.4-6.31,0-5.9-3.69-8.03-9.18-8.03h-11.41l7.97,6.67v-.52Z"/>
            <path class="st27" d="M96.2,73.7h.82c1.26,0,2.82-.08,4.11.24l4.27-3.99-4.34-3.63c-.73,1.19-2.36,1.4-3.95,1.4h-.9v-5.46l-7.97-6.67h-.06v30.45l8.03-7.5v-4.84Z"/>
            <path class="st25" d="M105.42,70.02v-.04l-.02-.02-4.27,3.99c1.41.35,2.49,1.18,2.49,3.12,0,3.4-4.02,3.28-6.39,3.28h-1.02v-1.8l-8.03,7.5v.44h12.38c5.65,0,11.19-2.13,11.19-8.61,0-4.3-1.88-7.29-6.31-7.87Z"/>
          </g>
          <g>
            <path class="st30" d="M132.46,69.62c.06.45.09.93.09,1.42,0,6.02-4.1,8.65-8.89,8.65h-1.8v-.47l-8.03,7.27h11.39c8.56,0,15.69-6.76,15.69-15.45,0-2.69-.68-5.19-1.87-7.37l-6.57,5.95Z"/>
            <path class="st33" d="M125.21,55.59h-11.39l8.19,6.8h1.73c4.7,0,8.15,2.58,8.72,7.22l6.57-5.95c-2.66-4.85-7.88-8.08-13.82-8.08Z"/>
            <polygon class="st35" points="113.82 86.49 121.85 79.22 121.85 62.39 122.01 62.39 113.82 55.59 113.82 86.49"/>
          </g>
        </g>
      </g>
      <g id="_x3C_Logo_x3E_3" data-name="_x3C_Logo_x3E_">
        <g>
          <g>
            <polygon class="st6" points="114.25 22.47 114.25 53.37 122.28 53.37 122.28 34.44 114.33 22.47 114.25 22.47"/>
            <polygon class="st16" points="137.06 41.36 136.99 41.36 122.28 22.47 114.33 22.47 122.28 34.44 122.36 34.44 137.07 53.37 144.76 53.37 137.06 41.36"/>
            <polygon class="st12" points="145.1 53.37 145.1 22.47 137.07 22.47 137.07 41.36 137.06 41.36 144.76 53.37 145.1 53.37"/>
          </g>
          <g>
            <path class="st0" d="M156.05,40.59h-.82v6.64h1.02c2.38,0,6.39.12,6.39-3.28,0-3.73-3.97-3.36-6.6-3.36Z"/>
            <path class="st10" d="M155.23,28.62h.57c2.17,0,4.67.16,4.67,2.99,0,.67-.14,1.18-.39,1.59l4.36,3.65v-.04c2.5-1.27,3.4-3.52,3.4-6.31,0-5.9-3.69-8.03-9.18-8.03h-11.41l7.97,6.67v-.52Z"/>
            <path class="st23" d="M155.23,40.59h.82c1.26,0,2.82-.08,4.11.24l4.27-3.99-4.34-3.63c-.73,1.19-2.36,1.4-3.95,1.4h-.9v-5.46l-7.97-6.67h-.06v30.45l8.03-7.5v-4.84Z"/>
            <path class="st28" d="M164.45,36.9v-.04l-.02-.02-4.27,3.99c1.41.35,2.49,1.18,2.49,3.12,0,3.4-4.02,3.28-6.39,3.28h-1.02v-1.8l-8.03,7.5v.44h12.38c5.65,0,11.19-2.13,11.19-8.61,0-4.3-1.88-7.29-6.31-7.87Z"/>
          </g>
          <g>
            <path class="st29" d="M191.49,36.5c.06.45.09.93.09,1.42,0,6.02-4.1,8.65-8.89,8.65h-1.8v-.47l-8.03,7.27h11.39c8.56,0,15.69-6.76,15.69-15.45,0-2.69-.68-5.19-1.87-7.37l-6.57,5.95Z"/>
            <path class="st34" d="M184.24,22.47h-11.39l8.19,6.8h1.73c4.7,0,8.15,2.58,8.72,7.22l6.57-5.95c-2.66-4.85-7.88-8.08-13.82-8.08Z"/>
            <polygon class="st32" points="172.85 53.37 180.88 46.1 180.88 29.28 181.03 29.28 172.85 22.47 172.85 53.37"/>
          </g>
        </g>
      </g>
    </g>
  </g>
  <g id="Contraportada">
    <g id="_x3C_Patron_x3E_">
      <g class="st44">
        <path class="st1" d="M253.5,268.35c-6.02-1.42-11.84-3.3-17.41-5.61-5.66-2.35-11.06-5.12-16.12-8.31-3.63-2.28-7.1-4.78-10.37-7.46-15.16-12.46-26.17-29.1-30.71-48.71-5.02-21.66-1.35-43.56,8.91-62.8h0c.12-.24.24-.46.37-.69,3.75-6.92,8.37-13.49,13.74-19.57,3.99-4.52,8.39-8.77,13.17-12.7"/>
        <polygon class="st37" points="169.5 176.48 169.5 342.11 169.5 342.24 169.5 488.01 179.02 488.01 179.02 342.24 179.02 342.11 179.02 176.48 169.5 176.48"/>
        <path class="st21" d="M191.1,176.39v242.5c3.27,5.01,6.44,10.3,9.52,15.77V176.39h-9.52Z"/>
        <rect class="st3" x="241.68" y="176.66" width="16.84" height="312.59"/>
        <polygon class="st2" points="222.49 215.8 213.53 287.04 231.44 287.04 222.49 215.8"/>
      </g>
    </g>
  </g>
</svg>